<?xml version="1.0" encoding="UTF-8" standalone="no"?>
<!-- Generator: Adobe Illustrator 15.0.0, SVG Export Plug-In . SVG Version: 6.00 Build 0)  -->
<svg xmlns:rdf="http://www.w3.org/1999/02/22-rdf-syntax-ns#" xmlns="http://www.w3.org/2000/svg" enable-background="new 0 0 512 512" xml:space="preserve" viewBox="0 0 512 512" version="1.1" y="0px" x="0px" xmlns:cc="http://creativecommons.org/ns#" xmlns:dc="http://purl.org/dc/elements/1.1/"><metadata><rdf:RDF><cc:Work rdf:about=""><dc:format>image/svg+xml</dc:format><dc:type rdf:resource="http://purl.org/dc/dcmitype/StillImage"/><dc:title/></cc:Work></rdf:RDF></metadata><path d="M512,251c0-32.2-26.2-58.4-58.4-58.4-14.6,0-27.9,5.37-38.1,14.2-39.7-25.7-91-40.8-146-42.9l29-94.6,84.4,18.9c-0.002,0.228-0.033,0.448-0.033,0.676,0,26.6,21.7,48.3,48.3,48.3s48.3-21.7,48.3-48.3-21.7-48.3-48.3-48.3c-20,0-37.2,12.2-44.5,29.6l-92.4-20.7c-4.68-1.05-9.38,1.68-10.8,6.27l-33.1,108c-57.9,0.929-112,16.1-154,43.1-10.2-8.85-23.6-14.2-38.1-14.2-32.2,0-58.4,26.2-58.4,58.4,0,21.1,11.3,39.7,28.1,49.9-0.86,5.48-1.31,11-1.31,16.6,0,41.9,24.4,80.9,68.6,110,43,28.3,100,43.9,161,43.9,60.5,0,118-15.6,161-43.9,44.2-29.1,68.6-68.2,68.6-110,0-5.6-0.451-11.1-1.31-16.6,16-10,27-29,27-50zm-81-192c16.5,0,29.9,13.4,29.9,29.9s-13.4,29.9-29.9,29.9-29.9-13.4-29.9-29.9c0-16.8,14-30.2,30-30.2zm-413,192c0-22.1,18-40,40-40,8.36,0,16.1,2.58,22.5,6.98-23.5,18.6-39.8,40.4-48,63.9-8.9-8-14.5-19-14.5-31zm238,202c-116,0-211-60.8-211-136,0-3.21,0.187-6.4,0.53-9.56,0.667-6.11,1.96-12.1,3.85-18,7.06-21.9,22.4-41.9,43.8-58.6,4.74-3.7,9.79-7.23,15.1-10.6,38.1-24,90.2-38.9,148-38.9,57.4,0,110,14.8,148,38.9,5.31,3.35,10.4,6.88,15.1,10.6,21.4,16.7,36.7,36.7,43.8,58.6,1.89,5.87,3.18,11.9,3.85,18,0.346,3.16,0.529,6.34,0.529,9.56-1,75-96,136-212,136zm223-171c-8.2-23.5-24.5-45.3-48-63.9,6.43-4.4,14.2-6.98,22.5-6.98,22.1,0,40,18,40,40,0,12-6,23-15,31z"/><path d="M326,376c-17.4,14.3-39,20.6-70,20.6s-52.6-6.36-70-20.6c-4.12-3.38-10.2-2.77-13.6,1.34-3.38,4.12-2.78,10.2,1.34,13.6,20.8,17.1,46.9,25,82.2,25s61.4-7.94,82.2-25c4.12-3.38,4.72-9.45,1.34-13.6-2-4-8-4-12-1z"/><path d="M214,290c0-19.2-15.6-34.7-34.7-34.7-19.2,0-34.7,15.6-34.7,34.7,0,19.2,15.6,34.7,34.7,34.7,20,0,35-16,35-35z"/><path d="M334,255c-19.2,0-34.7,15.6-34.7,34.7,0,19.2,15.6,34.7,34.7,34.7,19.2,0,34.7-15.6,34.7-34.7,0-19-16-35-35-35z"/></svg>
