<?xml version="1.0" encoding="UTF-8" standalone="no"?>
<!-- Created with Inkscape (http://www.inkscape.org/) -->
<svg xmlns:rdf="http://www.w3.org/1999/02/22-rdf-syntax-ns#" xmlns="http://www.w3.org/2000/svg" version="1.1" xmlns:cc="http://creativecommons.org/ns#" xmlns:dc="http://purl.org/dc/elements/1.1/" viewBox="0 0 300 300">
<metadata>
<rdf:RDF>
<cc:Work rdf:about="">
<dc:format>image/svg+xml</dc:format>
<dc:type rdf:resource="http://purl.org/dc/dcmitype/StillImage"/>
<dc:title/>
</cc:Work>
</rdf:RDF>
</metadata>
<path fill="#3aaae1" d="m300,58.5c-11.1,4.9-22.9,8.22-35.4,9.71,12.7-7.63,22.5-19.7,27.1-34.1-11.9,7.06-25.1,12.2-39.1,15-11.2-12-27.3-19.5-45-19.5-34,0-61.6,27.6-61.6,61.6,0,4.83,0.545,9.54,1.6,14-52.1-2-97.5-26.8-128-64.1-5.31,9.1-8.35,19.7-8.35,31,0,21.4,10.9,40.2,27.4,51.3-10.1-0.32-19.6-3.09-27.9-7.71-0.006,0.257-0.006,0.515-0.006,0.775,0,29.9,21.2,54.8,49.4,60.4-5.17,1.41-10.6,2.16-16.2,2.16-3.97,0-7.83-0.388-11.6-1.11,7.84,24.5,30.6,42.3,57.6,42.8-21.1,16.5-47.7,26.4-76.5,26.4-4.98,0-9.88-0.291-14.7-0.862,27.3,17.5,59.7,27.7,94.5,27.7,113,0,175-93.9,175-175,0-2.67-0.0601-5.33-0.179-7.97,12-8.69,22.5-19.5,30.8-31.9z"/>
</svg>
