<?xml version="1.0" encoding="UTF-8" standalone="no"?>
<svg xmlns:rdf="http://www.w3.org/1999/02/22-rdf-syntax-ns#" xmlns="http://www.w3.org/2000/svg" version="1.1" xml:space="preserve" viewBox="0 0 24 24" enable-background="new 0 0 24 24" xmlns:cc="http://creativecommons.org/ns#" xmlns:dc="http://purl.org/dc/elements/1.1/"><metadata><rdf:RDF><cc:Work rdf:about=""><dc:format>image/svg+xml</dc:format><dc:type rdf:resource="http://purl.org/dc/dcmitype/StillImage"/><dc:title/></cc:Work></rdf:RDF></metadata><path d="M21.6,6.37c-0.467-0.772-1.04-1.53-1.75-2.23-0.713-0.708-1.48-1.29-2.27-1.75l1.5-1.39,3,1s1,3,1,3l-1.4,1.37zm-11.6,11.6h-4v-4l0.48-0.48c0.813,0.385,1.62,0.926,2.35,1.65,0.728,0.729,1.27,1.54,1.65,2.35l-0.5,0.4zm10.5-10.5l-8.85,8.84c-0.467-0.771-1.04-1.53-1.75-2.23-0.712-0.709-1.48-1.29-2.27-1.75l8.92-8.88c0.813,0.383,1.62,0.924,2.35,1.65,0.8,0.73,1.3,1.54,1.7,2.35zm-16.5-3.52v16h16v-7l3-3.04v11c0,1.1-0.896,2-2,2h-18c-1.1,0-2-0.895-2-2v-18c0-1.1,0.896-2,2-2h11l-3,3h-7z"/></svg>
