<?xml version="1.0" encoding="UTF-8" standalone="no"?>
<!-- Generator: Adobe Illustrator 16.0.0, SVG Export Plug-In . SVG Version: 6.00 Build 0)  -->
<svg xmlns:rdf="http://www.w3.org/1999/02/22-rdf-syntax-ns#" xmlns="http://www.w3.org/2000/svg" enable-background="new 0 0 266.893 266.895" xml:space="preserve" height="267px" viewBox="0 0 266.893 266.895" width="267px" version="1.1" y="0px" x="0px" xmlns:cc="http://creativecommons.org/ns#" xmlns:dc="http://purl.org/dc/elements/1.1/"><metadata><rdf:RDF><cc:Work rdf:about=""><dc:format>image/svg+xml</dc:format><dc:type rdf:resource="http://purl.org/dc/dcmitype/StillImage"/><dc:title/></cc:Work></rdf:RDF></metadata><path d="M248,262c7.85,0,14.2-6.37,14.2-14.2v-229c0-7.86-6.37-14.2-14.2-14.2h-229c-7.86,0-14.2,6.37-14.2,14.2v229c0,7.86,6.37,14.2,14.2,14.2h229z" fill="#3C5A99"/><path d="M182,262v-99.8h33.5l5.02-38.9h-38.5v-24.2c0-11.3,3.13-18.9,19.3-18.9l20.6-0.009v-34.9c-3.56-0.474-15.8-1.53-30-1.53-29.7,0-50,18.1-50,51.4v28.7h-33.6v38.9h33.6v99.8h41.4z" fill="#FFF"/></svg>
