<?xml version="1.0" encoding="UTF-8" standalone="no"?>
<!-- Generator: Adobe Illustrator 16.0.0, SVG Export Plug-In . SVG Version: 6.00 Build 0)  -->
<svg xmlns:rdf="http://www.w3.org/1999/02/22-rdf-syntax-ns#" style="enable-background:new 0 0 512 512;" xmlns="http://www.w3.org/2000/svg" xml:space="preserve" viewBox="0 0 512 512" version="1.1" y="0px" x="0px" xmlns:cc="http://creativecommons.org/ns#" xmlns:dc="http://purl.org/dc/elements/1.1/"><metadata><rdf:RDF><cc:Work rdf:about=""><dc:format>image/svg+xml</dc:format><dc:type rdf:resource="http://purl.org/dc/dcmitype/StillImage"/><dc:title/></cc:Work></rdf:RDF></metadata><path d="M256,0c-141,0-256,115-256,256s115,256,256,256,256-115,256-256-115-256-256-256zm152,408c-19.8,19.8-42.8,35.3-68.4,46.1-6.5,2.75-13.1,5.16-19.8,7.25v-38c0-20.2-6.92-35-20.8-44.5,8.67-0.833,16.6-2,23.9-3.5s14.9-3.67,23-6.5c8.08-2.83,15.3-6.21,21.8-10.1,6.42-3.92,12.6-9,18.5-15.2,5.92-6.25,10.9-13.3,14.9-21.2s7.17-17.4,9.5-28.5c2.33-11.1,3.5-23.3,3.5-36.6,0-25.8-8.42-47.8-25.2-66,7.67-20,6.83-41.8-2.5-65.2l-6.25-0.75c-4.33-0.5-12.1,1.33-23.4,5.5s-23.9,11-37.9,20.5c-19.8-5.5-40.4-8.25-61.7-8.25-21.5,0-42,2.75-61.5,8.25-8.83-6-17.2-11-25.1-14.9s-14.2-6.58-19-8-9.17-2.29-13.2-2.62-6.71-0.417-7.88-0.25-2,0.333-2.5,0.5c-9.33,23.7-10.2,45.4-2.5,65.2-16.8,18.2-25.2,40.2-25.2,66,0,13.3,1.17,25.5,3.5,36.6s5.5,20.6,9.5,28.5,8.96,15,14.9,21.2,12.1,11.3,18.5,15.2,13.7,7.29,21.8,10.1,15.8,5,23,6.5,15.2,2.67,23.9,3.5c-13.7,9.33-20.5,24.2-20.5,44.5v39.1c-7.55-2.25-15-4.9-22.3-7.99-25.6-10.8-48.6-26.3-68.4-46.1s-35.3-42.8-46.1-68.4c-13.2-24-18.9-52-18.9-81s5.68-57.2,16.9-83.7c10.8-25.6,26.3-48.6,46.1-68.4s42.8-35.3,68.4-46.1c27-11.2,55-16.9,84-16.9s57.2,5.68,83.7,16.9c25.6,10.8,48.6,26.3,68.4,46.1s35.3,42.8,46.1,68.4c11,27,17,55,17,84s-5.68,57.2-16.9,83.7c-11,25-26,48-46,68z"/></svg>
